<svg xmlns="http://www.w3.org/2000/svg" xmlns:xlink="http://www.w3.org/1999/xlink" width="100" height="35" viewBox="0 0 100 35">
  <defs>
    <clipPath id="clip-path">
      <rect id="Rectangle_2454" data-name="Rectangle 2454" width="100" height="35" transform="translate(0.476)" fill="#e4e4e4"/>
    </clipPath>
  </defs>
  <g id="costco_-_white" data-name="costco - white" transform="translate(-0.476)" clip-path="url(#clip-path)">
    <g id="Costco_Wholesale_logo_color" transform="translate(15.038 7.868)">
      <path id="Path_4823" data-name="Path 4823" d="M278.22,339l.18,2.873h.046a5.93,5.93,0,0,1,.342-.887l.981-1.986h1.593l.241,2.873h.046a6.151,6.151,0,0,1,.3-.849l.957-2.024h2.162l-2.924,4.814h-1.813l-.16-2.618H280.1a4.355,4.355,0,0,1-.243.728l-.932,1.89H277.16L276.06,339Z" transform="translate(-254.238 -324.201)" fill="#fff"/>
      <path id="Path_4824" data-name="Path 4824" d="M297.56,339h2l-.3,1.622h1.274l.3-1.622h2l-.906,4.814h-2l.315-1.673h-1.275l-.315,1.673h-2Z" transform="translate(-266.878 -324.201)" fill="#fff"/>
      <path id="Path_4825" data-name="Path 4825" d="M317.743,341.3a3.451,3.451,0,0,1-3.628,2.471c-1.745,0-2.99-.926-2.7-2.471a3.51,3.51,0,0,1,3.634-2.5C316.787,338.8,318.027,339.786,317.743,341.3Zm-4.238.025c-.1.549.266.926.9.926a1.2,1.2,0,0,0,1.245-.926c.1-.511-.233-.938-.893-.938a1.222,1.222,0,0,0-1.252.938Zm4.694-2.445h2.079l-.615,3.269h1.745l-.291,1.545h-3.824Zm8.127,3.09.093.071a2.037,2.037,0,0,0,1.215.441c.2,0,.544-.071.585-.287s-.229-.236-.412-.268l-.406-.064c-.789-.122-1.4-.524-1.255-1.277.216-1.143,1.572-1.782,2.816-1.782a3.445,3.445,0,0,1,1.734.422l-.793,1.232a2.074,2.074,0,0,0-1.138-.364c-.182,0-.459.057-.495.255-.034.179.219.2.373.236l.454.089c.848.167,1.411.562,1.258,1.379-.217,1.149-1.568,1.718-2.8,1.718a5.342,5.342,0,0,1-2.117-.441Z" transform="translate(-275.915 -324.081)" fill="#fff"/>
      <path id="Path_4826" data-name="Path 4826" d="M362.227,342.071l-.083-.849a5.461,5.461,0,0,1-.02-.62h-.076l-.655,1.469Zm-1.81,1.743h-2.2L361.111,339h2.3l1.135,4.814h-2.2l-.076-.6H360.7Z" transform="translate(-304.674 -324.201)" fill="#fff"/>
      <path id="Path_4827" data-name="Path 4827" d="M375.064,339h2.079l-.615,3.269h1.745l-.291,1.545h-3.823Zm4.21,0h3.847l-.248,1.316H381.12l-.086.46h1.6l-.235,1.252h-1.6l-.088.472h1.814l-.248,1.315H378.37Z" transform="translate(-314.461 -324.201)" fill="#fff"/>
      <g id="Group_2473" data-name="Group 2473">
        <path id="Path_4828" data-name="Path 4828" d="M275.894,311.1l2.625-.1-2.2,7.33h4.709l2.2-7.33,2.566.1,1.045-3.48h-9.9Zm-9.751,1.9c-.659,3.437-4.267,5.5-8.22,5.5s-6.772-2.06-6.114-5.5c.645-3.367,4.295-5.554,8.231-5.554s6.747,2.188,6.1,5.554Zm-9.6.057c-.234,1.222.6,2.06,2.029,2.06a2.715,2.715,0,0,0,2.818-2.06c.218-1.136-.528-2.088-2.023-2.088a2.759,2.759,0,0,0-2.826,2.089Z" transform="translate(-239.287 -304.951)" fill="#fff"/>
        <path id="Path_4829" data-name="Path 4829" d="M244.917,313.613a12.3,12.3,0,0,0,4.8.98c2.8,0,5.862-1.264,6.352-3.821.348-1.818-.926-2.7-2.849-3.068l-1.028-.2c-.347-.071-.921-.128-.845-.526.084-.44.71-.568,1.123-.568a4.755,4.755,0,0,1,2.577.81l1.8-2.741a7.913,7.913,0,0,0-3.928-.937c-2.819,0-5.892,1.421-6.379,3.963-.321,1.676,1.054,2.571,2.841,2.841l.918.142c.416.072,1.027.114.934.6s-.861.639-1.326.639a4.667,4.667,0,0,1-2.751-.98l-.21-.156Zm31.326-9.631a10.834,10.834,0,0,0-3.078-.44c-3.8,0-7.25,2.5-7.849,5.625-.585,3.054,1.848,5.426,5.543,5.426a13.381,13.381,0,0,0,3.433-.426l.9-4.006a4.943,4.943,0,0,1-2.889.994c-1.409,0-2.455-.909-2.229-2.088a2.974,2.974,0,0,1,2.961-2.088,3.8,3.8,0,0,1,2.561,1.08Zm7.54-.44c-3.936,0-7.586,2.187-8.231,5.554-.658,3.437,2.161,5.5,6.114,5.5s7.561-2.06,8.219-5.5c.646-3.367-2.166-5.554-6.1-5.554Zm-.675,3.523c1.5,0,2.241.951,2.023,2.088a2.715,2.715,0,0,1-2.818,2.06c-1.426,0-2.263-.838-2.029-2.06a2.761,2.761,0,0,1,2.825-2.089Zm-49.848-5.486a13.916,13.916,0,0,0-3.839-.532c-4.737,0-9.043,3.022-9.789,6.8-.729,3.692,2.3,6.559,6.913,6.559a17.192,17.192,0,0,0,4.282-.515l1.128-4.842a6.285,6.285,0,0,1-3.6,1.2c-1.758,0-3.062-1.1-2.781-2.525a3.7,3.7,0,0,1,3.693-2.524,4.816,4.816,0,0,1,3.193,1.3l.8-4.927Z" transform="translate(-219.525 -301.046)" fill="#fff"/>
        <path id="Path_4830" data-name="Path 4830" d="M394.261,332.961a.938.938,0,0,1,.933-.675c.446,0,.748.3.678.675a.94.94,0,0,1-.933.678C394.49,333.639,394.191,333.337,394.261,332.961Zm1.4,0c.056-.3-.158-.5-.5-.5a.655.655,0,0,0-.688.5c-.057.3.151.5.5.5A.662.662,0,0,0,395.661,332.961Zm-.287.354h-.208l-.131-.3H394.9l-.056.3h-.177l.133-.708h.408c.18,0,.277.05.246.217a.234.234,0,0,1-.226.192l.147.3Zm-.258-.435c.088,0,.164,0,.179-.076s-.065-.062-.153-.062h-.191l-.025.138Z" transform="translate(-326.797 -320.105)" fill="#fff"/>
      </g>
      <path id="Path_4831" data-name="Path 4831" d="M220.658,343.822H242.7v-.008h-.018l-.279-1.224H220.658Zm0-1.75h21.624L242,340.84H220.658Zm0-1.757h21.217l-.1-.449-.2-.857H220.658ZM266.715,339h3.847l-.247,1.316h-1.753l-.087.46h1.6l-.235,1.252h-1.6l-.089.472h1.813l-.247,1.315h-3.908Z" transform="translate(-220.221 -324.201)" fill="#fff"/>
    </g>
  </g>
</svg>