<svg xmlns="http://www.w3.org/2000/svg" xmlns:xlink="http://www.w3.org/1999/xlink" width="100" height="35" viewBox="0 0 100 35">
  <defs>
    <clipPath id="clip-path">
      <rect id="Rectangle_2449" data-name="Rectangle 2449" width="100" height="35" transform="translate(-0.048)" fill="#e4e4e4"/>
    </clipPath>
  </defs>
  <g id="hilton_-_white" data-name="hilton - white" transform="translate(0.048)" clip-path="url(#clip-path)">
    <g id="Hilton_Worldwide_logo" transform="translate(16.519 5.008)">
      <path id="Path_4809" data-name="Path 4809" d="M0-409.3v12.7H67.785V-422H0Zm66.653,0v11.561l-32.742-.012-32.748-.018-.018-11.549-.012-11.543h65.52Z" transform="translate(0 422)" fill="#fff"/>
      <path id="Path_4810" data-name="Path 4810" d="M98-324.675v.325l.256.042c.137.018.34.054.447.072l.191.03-.012,6.064-.018,6.058-.429.048-.435.054v.71h4.531v-.71l-.429-.054-.435-.048-.018-2.758-.012-2.752H107.6v2.734a11.476,11.476,0,0,1-.083,2.764,3.642,3.642,0,0,1-.507.078l-.423.042v.7h4.65v-.71l-.4-.042a3.8,3.8,0,0,1-.477-.072,60.018,60.018,0,0,1-.077-6.07v-6.039l.238-.036c.131-.018.346-.054.477-.072l.238-.036V-325h-4.65v.65l.286.036c.155.024.382.054.507.072l.221.036v5.166h-5.962v-5.166l.256-.042c.7-.108.638-.066.638-.427V-325H98Z" transform="translate(-92.157 330.841)" fill="#fff"/>
      <path id="Path_4811" data-name="Path 4811" d="M367.731-324.888a1.354,1.354,0,0,0-.659,1.528,1.354,1.354,0,0,0,1.321,1.013,1.276,1.276,0,0,0,1.025-.476,1.314,1.314,0,0,0-.006-1.758,1.328,1.328,0,0,0-1.681-.307Z" transform="translate(-345.142 330.898)" fill="#fff"/>
      <path id="Path_4812" data-name="Path 4812" d="M457-324.7v.3l.4.048.4.054.018,6.154.012,6.148-.161.036c-.1.018-.28.048-.417.066l-.256.042v.59h4.233v-.59l-.25-.042c-.143-.018-.328-.048-.417-.066L460.4-312v-13H457Z" transform="translate(-429.755 330.841)" fill="#fff"/>
      <path id="Path_4813" data-name="Path 4813" d="M546.058-305.521l-1.21.367v2.077H543v.9h1.782l.018,3.655c.024,4.071.024,4.028.435,4.606.626.867,2.5.957,4.728.223l.37-.126v-.662l-.179.042a7.287,7.287,0,0,1-.942.042c-1.085.006-1.431-.126-1.693-.662l-.137-.283-.018-3.42-.018-3.414h2.271v-.9h-2.266v-1.415a11.674,11.674,0,0,0-.042-1.409C547.28-305.895,546.72-305.726,546.058-305.521Z" transform="translate(-510.628 312.892)" fill="#fff"/>
      <path id="Path_4814" data-name="Path 4814" d="M678.484-263.6a6.042,6.042,0,0,0-2.635,1.072,5.019,5.019,0,0,0-1.6,2.535,9.112,9.112,0,0,0-.1,2.974,4.227,4.227,0,0,0,1.169,2.475,4.794,4.794,0,0,0,3.458,1.24,5.39,5.39,0,0,0,4.114-1.343,4.661,4.661,0,0,0,1.473-3.45,6.266,6.266,0,0,0-.3-2.421,3.9,3.9,0,0,0-1.079-1.764,3.27,3.27,0,0,0-1.043-.771,5.149,5.149,0,0,0-2.415-.554C679.068-263.615,678.6-263.609,678.484-263.6Zm1.073.747a2.013,2.013,0,0,1,1.521,1.3,6.883,6.883,0,0,1,.507,3.125c0,3.017-.727,4.377-2.355,4.384a1.731,1.731,0,0,1-1.383-.548c-.757-.783-1.127-2.6-.972-4.733s.793-3.294,1.926-3.523a1.468,1.468,0,0,1,.756,0Z" transform="translate(-633.889 273.146)" fill="#fff"/>
      <path id="Path_4815" data-name="Path 4815" d="M870.391-262.758a5.51,5.51,0,0,0-2.444,1.108,3.064,3.064,0,0,1-.5.331,1.91,1.91,0,0,1-.053-.632v-.632H864v.65l.286.036c.155.024.352.054.447.072l.161.036v8.225l-.34.036c-.554.066-.554.066-.554.4v.3h4.292v-.3a.614.614,0,0,0-.042-.307c-.03-.006-.221-.036-.435-.078l-.388-.066v-6.985l.3-.2a5.176,5.176,0,0,1,.775-.385,2.124,2.124,0,0,1,1.013-.2,1.349,1.349,0,0,1,1.174.434c.471.5.537,1.06.513,4.594l-.018,2.74-.387.066c-.215.042-.405.072-.429.078a.576.576,0,0,0-.048.307v.3h4.293v-.3c0-.337,0-.337-.549-.4l-.34-.042-.018-3.5c-.018-3.468-.024-3.5-.161-3.92a2.39,2.39,0,0,0-.721-1.192,2.457,2.457,0,0,0-1.4-.584,2.619,2.619,0,0,0-1.038.01Z" transform="translate(-812.49 272.398)" fill="#fff"/>
      <path id="Path_4816" data-name="Path 4816" d="M354-258.7v.3l.286.036c.155.024.352.054.447.072l.161.036-.012,4.131L354.864-250l-.387.066c-.215.042-.4.072-.429.078a.576.576,0,0,0-.048.307v.3h4.3l-.018-.277c-.024-.331-.066-.367-.537-.416l-.346-.036V-259H354Z" transform="translate(-332.895 268.815)" fill="#fff"/>
    </g>
  </g>
</svg>
