<svg xmlns="http://www.w3.org/2000/svg" xmlns:xlink="http://www.w3.org/1999/xlink" width="100" height="35" viewBox="0 0 100 35">
  <defs>
    <clipPath id="clip-path">
      <rect id="Rectangle_2450" data-name="Rectangle 2450" width="100" height="35" transform="translate(-0.226)" fill="#e4e4e4"/>
    </clipPath>
  </defs>
  <g id="lowe_s_-_white" data-name="lowe&apos;s - white" transform="translate(0.226)" clip-path="url(#clip-path)">
    <path id="Subtraction_1" data-name="Subtraction 1" d="M1485.84-2473.99H1436v-14.867h4.014v-2.215h8.028l12.869-5.423,12.885,5.423h8.028v2.215h4.014v14.866Zm-11.337-3.179.046.013a11.919,11.919,0,0,0,3.171.545,2.936,2.936,0,0,0,1.839-.483,2.738,2.738,0,0,0,.965-1.973,2.16,2.16,0,0,0-.214-1.069l-.016-.03a.09.09,0,0,1-.015-.022.082.082,0,0,0-.016-.023l-.015-.03a4.428,4.428,0,0,0-2.466-1.823l-.046-.015-.023-.009c-.279-.113-1.021-.411-1.111-.879a.545.545,0,0,1,.184-.482,1.031,1.031,0,0,1,.751-.256,3.986,3.986,0,0,1,1.44.347l1.241.512.061.03v-1.823l-.016-.015a7.212,7.212,0,0,0-2.512-.949c-.138-.014-.293-.014-.429-.014a2.948,2.948,0,0,0-2.6,1.235,2.548,2.548,0,0,0-.122,2.515,4.221,4.221,0,0,0,2.175,1.627l.108.048a7.8,7.8,0,0,1,.9.449.8.8,0,0,1,.475.843.849.849,0,0,1-.889.512.763.763,0,0,1-.184-.015h-.015a18.416,18.416,0,0,1-2.635-.768l-.061-.015h0v2l.031.015Zm-7.614-8.164v8.345h5.424v-1.943h-3.141v-1.281h3.141v-1.883h-3.141v-1.281h3.141v-1.958Zm-25.2-1.792v10.137h5.791v-1.943h-3.524v-8.2Zm19.226,9.414h0a.836.836,0,0,0,.873.724h2.712a1.08,1.08,0,0,0,1.088-1.069v-7.276H1463.3v6.387h-1.379v-6.387h-2.007v6.387h-1.379v-6.387h-2.283v7.276a1.08,1.08,0,0,0,1.088,1.069h2.7a.825.825,0,0,0,.87-.723Zm-11.428-7.621a1.08,1.08,0,0,0-1.088,1.07v6.206a1.08,1.08,0,0,0,1.088,1.069h4.4a1.08,1.08,0,0,0,1.088-1.069v-6.206a1.08,1.08,0,0,0-1.088-1.07Zm31.912-.045a.685.685,0,0,0-.492.193.684.684,0,0,0-.208.485.685.685,0,0,0,.208.485.683.683,0,0,0,.491.192.685.685,0,0,0,.491-.192.684.684,0,0,0,.208-.485.685.685,0,0,0-.207-.487.685.685,0,0,0-.492-.194Zm-8.6-1.748v2.41h1.594l.322-2.41Zm-20.115,8.179h-2.007v-4.429h2.007v4.428Zm28.71-5.2a.557.557,0,0,1-.406-.165.557.557,0,0,1-.161-.407.558.558,0,0,1,.161-.407.558.558,0,0,1,.406-.165.562.562,0,0,1,.4.167.563.563,0,0,1,.163.405.558.558,0,0,1-.157.409.557.557,0,0,1-.4.169Zm-.276-.949v.784h.123v-.346h.137l.214.347h.138l-.229-.347a.2.2,0,0,0,.145-.063.2.2,0,0,0,.055-.148c0-.15-.093-.226-.276-.226Zm.276.347h0v-.015h-.138v-.24h.169c.082,0,.168.031.168.12,0,.133-.093.143-.193.143Z" transform="translate(-1411.145 2502.741)" fill="#fff"/>
  </g>
</svg>
