<svg xmlns="http://www.w3.org/2000/svg" xmlns:xlink="http://www.w3.org/1999/xlink" width="100" height="35" viewBox="0 0 100 35">
  <defs>
    <clipPath id="clip-path">
      <rect id="Rectangle_2447" data-name="Rectangle 2447" width="100" height="35" fill="#e4e4e4"/>
    </clipPath>
  </defs>
  <g id="mariott_-_white" data-name="mariott - white" clip-path="url(#clip-path)">
    <g id="Group_2468" data-name="Group 2468" transform="translate(15.586 6.628)">
      <path id="Path_4799" data-name="Path 4799" d="M99.8,151.968v-3.606h.788v3.606Zm4.789,0-1.724-2.288v2.288h-.776v-3.606h.726l1.662,2.226v-2.226h.776v3.606Zm3.472-2.872v2.872h-.788V149.1H106.19v-.734h2.955v.734Zm2.031,2.872v-3.606h2.684v.709h-1.908v.721h1.674v.709h-1.674v.771H112.8v.709Zm6.168,0-.763-1.156h-.616v1.156h-.788v-3.606h1.625c.837,0,1.342.448,1.342,1.194v.012a1.113,1.113,0,0,1-.763,1.119l.874,1.293h-.911Zm.012-2.375c0-.348-.234-.51-.616-.51h-.776v1.032h.788c.382,0,.6-.211.6-.522Zm4.58,2.375-1.724-2.288v2.288h-.776v-3.606h.726l1.662,2.226v-2.226h.776v3.606Zm4.568,0-.32-.808h-1.514l-.32.808h-.8l1.527-3.631h.726l1.527,3.631Zm-1.083-2.686-.468,1.169h.948Zm3.952-.187v2.872H127.5V149.1h-1.083v-.734h2.955v.734Zm2.118,2.872v-3.606h.788v3.606Zm3.89.062a1.836,1.836,0,0,1-1.884-1.853v-.012a1.89,1.89,0,1,1,3.78-.012v.012a1.842,1.842,0,0,1-1.9,1.865Zm1.083-1.865a1.084,1.084,0,0,0-1.047-1.132H134.3a1.078,1.078,0,0,0-1.071,1.119v.012a1.084,1.084,0,0,0,1.046,1.132h.037a1.082,1.082,0,0,0,1.071-1.132Zm4.592,1.8-1.724-2.288v2.288h-.763v-3.606h.726l1.662,2.226v-2.226h.776v3.606Zm4.568,0-.32-.808h-1.5l-.32.808h-.8l1.527-3.631h.726l1.527,3.631Zm-1.071-2.686L143,150.451h.948Zm2.782,2.686v-3.606h.788v2.885h1.773v.721Z" transform="translate(-87.513 -129.86)" fill="#fff"/>
      <path id="Path_4800" data-name="Path 4800" d="M36.861,6.988a3.008,3.008,0,0,0-1.342-.361,1.9,1.9,0,0,0-1.6.92V14.9H31.074V4.588h2.6l.16,1.082a2.556,2.556,0,0,1,2.13-1.306,2.8,2.8,0,0,1,.9.162V6.988Zm6.747-2.462a3.1,3.1,0,0,0-.9-.162,2.556,2.556,0,0,0-2.13,1.306l-.16-1.082h-2.6V14.9h2.844V7.548a1.925,1.925,0,0,1,1.6-.92,3.008,3.008,0,0,1,1.342.361ZM29.338,7.548V14.9h-2.61l-.16-1.069a3.526,3.526,0,0,1-2.733,1.293,2.747,2.747,0,0,1-2.745-2.947c0-3.643,4.247-4.153,5.417-4.278V7.6c0-.6-.492-1.219-1.81-1.219a4.619,4.619,0,0,0-2.647.92V5.173a7.954,7.954,0,0,1,3.546-.8C28.206,4.365,29.338,5.571,29.338,7.548ZM26.494,9.9c-.9,0-2.548.311-2.548,1.753a1.162,1.162,0,0,0,1.108,1.256c.8,0,1.44-.584,1.44-1.9ZM10.908,1.542l2.561,5.546-1,2.176L8.2,0,4.962,1.529,7.51,7.075c-.2.435-.517,1.132-1.034,2.251-1.17,2.524-2.068,3.233-3.669,3.233a4.168,4.168,0,0,1-1.293-.236L0,15.6a6.458,6.458,0,0,0,2.413.51c1.9,0,3.287-1.243,4.494-3.867L8.4,9.015l2.7,5.894h3.952l-1.711-3.718,1-2.176,2.709,5.894H21L14.158,0ZM67.6,4.588V1.181L64.758,2.524V4.588h-.911V6.379h.911V14.9H67.6V6.379h1.44V4.588ZM44.666,14.9H47.51V4.588H44.666ZM61.57,1.181,58.726,2.524V4.588h-.911V6.379h.911V14.9H61.57V6.379h1.44V4.588H61.57Zm-4.408,7.71v1.691c0,2.462-1.182,4.526-4.1,4.526s-4.1-2.052-4.1-4.526V8.891c0-2.462,1.182-4.526,4.1-4.526S57.162,6.442,57.162,8.891Zm-2.869-.4c0-1.231-.3-2.1-1.231-2.1s-1.231.87-1.231,2.1V11c0,1.231.3,2.1,1.231,2.1s1.231-.87,1.231-2.1Z" fill="#fff"/>
    </g>
  </g>
</svg>
