<svg xmlns="http://www.w3.org/2000/svg" xmlns:xlink="http://www.w3.org/1999/xlink" width="100" height="35" viewBox="0 0 100 35">
  <defs>
    <clipPath id="clip-path">
      <rect id="Rectangle_2457" data-name="Rectangle 2457" width="100" height="35" fill="#e4e4e4"/>
    </clipPath>
  </defs>
  <g id="merck_-_white" data-name="merck - white" clip-path="url(#clip-path)">
    <g id="Group_7" data-name="Group 7" transform="translate(-714.614 -2493.926)">
      <path id="path14179" d="M95.6,160.495h3.673v11.854H96.55v-7.972l-3.482,7.972L89.4,164.368v7.982H86.86V160.495h3.63l2.617,6.136Z" transform="translate(666.937 2345.003)" fill="#fff"/>
      <path id="path14177" d="M96.061,160.495v11.854h6.84v-2.01H98.712v-3.016h4.015V165.3H98.712v-2.72H102.9V160.5Z" transform="translate(671.502 2345.003)" fill="#fff"/>
      <path id="path14175" d="M107.449,166.48a6.394,6.394,0,0,0,9.458,5.582v-2.54c-3.734,2.616-6.984-.006-6.931-2.941a3.917,3.917,0,0,1,3.883-3.95,3.645,3.645,0,0,1,3.048,1.155v-2.641c-3.506-2.078-9.458.209-9.458,5.335" transform="translate(677.155 2344.947)" fill="#fff"/>
      <path id="path14173" d="M114.517,172.312h2.521v-11.74h-2.521Z" transform="translate(680.664 2345.041)" fill="#fff"/>
      <path id="path14171" d="M119.281,165.946l3.81-5.358h-2.945l-3.774,5.348,4.382,6.367h2.891Z" transform="translate(681.585 2345.05)" fill="#fff"/>
      <path id="path14169" d="M101.418,160.493v11.854h2.661v-6.369l4.4,6.369h2.836l-3.482-4.978a3.274,3.274,0,0,0,2.137-3.316,3.719,3.719,0,0,0-3.883-3.561Zm2.661,1.973h1.162c1.964,0,2.068,1.284,2.068,1.763a1.74,1.74,0,0,1-1.78,1.7h-1.45Z" transform="translate(674.161 2345.002)" fill="#fff"/>
      <path id="path13366" d="M72.876,162.461a5.928,5.928,0,1,1,11.856,0Zm0,11.855a5.928,5.928,0,0,1,5.928-5.928,5.927,5.927,0,0,1-5.928-5.928,5.928,5.928,0,1,0,0,11.856m0,0a5.928,5.928,0,1,0,11.856,0Zm5.928-5.928a5.928,5.928,0,0,1,5.928,5.928,5.928,5.928,0,1,0,0-11.855,5.927,5.927,0,0,1-5.929,5.928" transform="translate(657.051 2343.037)" fill="#fff"/>
    </g>
  </g>
</svg>
